<?xml version="1.0" encoding="iso-8859-1"?>
<!-- Generator: Adobe Illustrator 16.0.0, SVG Export Plug-In . SVG Version: 6.00 Build 0)  -->
<!DOCTYPE svg PUBLIC "-//W3C//DTD SVG 1.1//EN" "http://www.w3.org/Graphics/SVG/1.1/DTD/svg11.dtd">
<svg version="1.1" id="Capa_1" xmlns="http://www.w3.org/2000/svg" xmlns:xlink="http://www.w3.org/1999/xlink" x="0px" y="0px"
	 width="95.103px" height="95.103px" viewBox="0 0 95.103 95.103" style="enable-background:new 0 0 95.103 95.103;"
	 xml:space="preserve">
<g>
	<g id="Layer_1_14_">
		<g>
			<g>
				<g>
					<path d="M47.561,0C25.928,0,8.39,6.393,8.39,14.283v11.72c0,7.891,17.538,14.282,39.171,14.282
						c21.632,0,39.17-6.392,39.17-14.282v-11.72C86.731,6.393,69.193,0,47.561,0z"/>
				</g>
			</g>
			<g>
				<g>
					<path d="M47.561,47.115c-20.654,0-37.682-5.832-39.171-13.227c-0.071,0.353,0,19.355,0,19.355
						c0,7.892,17.538,14.283,39.171,14.283c21.632,0,39.17-6.393,39.17-14.283c0,0,0.044-19.003-0.026-19.355
						C85.214,41.284,68.214,47.115,47.561,47.115z"/>
				</g>
			</g>
			<path d="M86.694,61.464c-1.488,7.391-18.479,13.226-39.133,13.226S9.875,68.854,8.386,61.464L8.39,80.82
				c0,7.891,17.538,14.282,39.171,14.282c21.632,0,39.17-6.393,39.17-14.282L86.694,61.464z"/>
		</g>
	</g>
</g>
</svg>
